<svg xmlns="http://www.w3.org/2000/svg" version="1.1" xmlns:xlink="http://www.w3.org/1999/xlink" xmlns:svgjs="http://svgjs.dev/svgjs" width="1440" height="560" preserveAspectRatio="none" viewBox="0 0 1440 560"><g mask="url(&quot;#SvgjsMask1069&quot;)" fill="none"><rect width="1440" height="560" x="0" y="0" fill="rgba(169, 210, 253, 1)"></rect><path d="M570.7764133562207 303.28139619893716L406.2410019712422 386.9189563820197 540.0026612840131 477.14233481545875z" fill="rgba(48, 105, 176, 0.4)" class="triangle-float1"></path><path d="M797.858,103.7C816.115,103.82,832.017,91.275,840.061,74.885C847.264,60.208,841.927,43.94,834.278,29.491C825.912,13.689,815.674,-3.316,797.858,-4.833C777.927,-6.53,758.08,4.477,748.836,22.216C740.136,38.912,746.899,58.204,756.604,74.337C765.93,89.839,779.767,103.581,797.858,103.7" fill="rgba(48, 105, 176, 0.4)" class="triangle-float2"></path><path d="M156.72062977180568 584.5067132432366L251.86136267126253 515.3829246461825 182.73757407420834 420.24219174672555 87.59684117475148 489.36598034377977z" fill="rgba(48, 105, 176, 0.4)" class="triangle-float1"></path><path d="M466.662907669785 179.89742306871665L545.367218986825 253.29038071593152 618.7601766340399 174.58606939889142 540.0558653169999 101.19311175167657z" fill="rgba(48, 105, 176, 0.4)" class="triangle-float2"></path><path d="M887.583,431.407C938.903,433.47,995.173,423.514,1021.646,379.501C1048.707,334.51,1033.107,278.705,1006.739,233.305C980.515,188.152,939.798,149.058,887.583,148.671C834.823,148.28,789.974,184.866,765.331,231.518C742.299,275.12,745.245,327.357,770.973,369.424C795.589,409.673,840.441,429.512,887.583,431.407" fill="rgba(48, 105, 176, 0.4)" class="triangle-float3"></path><path d="M255.956,116.115C284.945,115.478,309.935,99.36,326.104,75.291C344.829,47.418,361.934,12.378,345.205,-16.737C328.443,-45.909,289.599,-46.435,255.956,-46.793C221.384,-47.161,181.237,-48.263,163.358,-18.671C145.137,11.487,160.307,49.453,180.259,78.495C197.36,103.387,225.763,116.778,255.956,116.115" fill="rgba(48, 105, 176, 0.4)" class="triangle-float1"></path><path d="M1163.905138317995 358.88263244348946L1138.536191946627 502.7570767822849 1282.4106362854225 528.1260231536528 1307.7795826567904 384.25157881485734z" fill="rgba(48, 105, 176, 0.4)" class="triangle-float3"></path><path d="M1231.8593714349772 211.48526572806506L1178.461270918071 325.9978618286353 1292.9738670186414 379.3959623455414 1346.3719675355474 264.88336624497117z" fill="rgba(48, 105, 176, 0.4)" class="triangle-float3"></path><path d="M1346.013,437.897C1360.779,438.6,1374.559,430.803,1382.46,418.308C1390.973,404.845,1394.977,387.376,1386.478,373.904C1378.354,361.028,1361.21,359.612,1346.013,360.54C1332.724,361.352,1319.853,366.789,1313.293,378.375C1306.82,389.808,1308.79,403.589,1315.119,415.102C1321.727,427.122,1332.312,437.245,1346.013,437.897" fill="rgba(48, 105, 176, 0.4)" class="triangle-float3"></path><path d="M204.292,286.036C258.901,286.741,317.295,269.277,342.571,220.864C366.631,174.781,339.848,122.773,312.668,78.458C287.165,36.877,253.069,-4.122,204.292,-4.584C154.924,-5.052,117.566,33.956,92.298,76.37C66.252,120.091,48.087,172.483,72.064,217.372C97.143,264.324,151.066,285.349,204.292,286.036" fill="rgba(48, 105, 176, 0.4)" class="triangle-float3"></path><path d="M1410.5496325161148 106.91644509159528L1465.7769537670365 21.873828051968317 1325.5070154764878 51.68912384067353z" fill="rgba(48, 105, 176, 0.4)" class="triangle-float3"></path><path d="M1027.521,328.629C1049.069,329.533,1073.911,326.268,1083.949,307.18C1093.639,288.755,1078.996,268.918,1068.321,251.045C1058.064,233.871,1047.462,214.289,1027.521,212.7C1005.422,210.939,984.209,224.006,973.651,243.5C963.53,262.186,967.377,284.807,978.741,302.765C989.289,319.434,1007.812,327.802,1027.521,328.629" fill="rgba(48, 105, 176, 0.4)" class="triangle-float2"></path><path d="M1154.023,472.585C1194.794,471.625,1225.984,440.511,1245.997,404.977C1265.564,370.234,1273.953,328.665,1254.764,293.712C1234.925,257.574,1195.245,238.038,1154.023,237.439C1111.662,236.824,1069.337,254.064,1048.081,290.71C1026.76,327.468,1032.836,372.774,1054.225,409.493C1075.457,445.942,1111.853,473.578,1154.023,472.585" fill="rgba(48, 105, 176, 0.4)" class="triangle-float3"></path><path d="M1210.5725024977107 496.0133705165227L1144.4083583891627 397.9209929461372 1046.3159808187772 464.0851370546852 1112.4801249273253 562.1775146250707z" fill="rgba(48, 105, 176, 0.4)" class="triangle-float3"></path></g><defs><mask id="SvgjsMask1069"><rect width="1440" height="560" fill="#ffffff"></rect></mask><style>
                @keyframes float1 {
                    0%{transform: translate(0, 0)}
                    50%{transform: translate(-10px, 0)}
                    100%{transform: translate(0, 0)}
                }

                .triangle-float1 {
                    animation: float1 5s infinite;
                }

                @keyframes float2 {
                    0%{transform: translate(0, 0)}
                    50%{transform: translate(-5px, -5px)}
                    100%{transform: translate(0, 0)}
                }

                .triangle-float2 {
                    animation: float2 4s infinite;
                }

                @keyframes float3 {
                    0%{transform: translate(0, 0)}
                    50%{transform: translate(0, -10px)}
                    100%{transform: translate(0, 0)}
                }

                .triangle-float3 {
                    animation: float3 6s infinite;
                }
            </style></defs></svg>