<svg xmlns="http://www.w3.org/2000/svg" version="1.1" xmlns:xlink="http://www.w3.org/1999/xlink" xmlns:svgjs="http://svgjs.dev/svgjs" width="1440" height="560" preserveAspectRatio="none" viewBox="0 0 1440 560"><g mask="url(&quot;#SvgjsMask1009&quot;)" fill="none"><path d="M133 140C133 119.13 38.07 143.14 0 103.06C-28.43 73.14 -29.68 21.85 0 0C40.32 -29.68 70 0 140 0C181.03 0 182.73 -7.62 222.07 0C252.73 5.93 251.47 27.1 280 27.1C305.14 27.1 302.56 5.2 329.41 0C372.56 -8.35 374.71 0 420 0C490 0 490 0 560 0C630 0 630 0 700 0C770 0 770 0 840 0C910 0 910 0 980 0C1050 0 1050 0 1120 0C1190 0 1190 0 1260 0C1330 0 1330 0 1400 0C1470 0 1500.82 -30.82 1540 0C1570.82 24.24 1565.46 73.93 1540 110.11C1516.2 143.93 1441.48 123.58 1441.48 140C1441.48 156.75 1515.19 141.19 1540 176.44C1564.45 211.19 1540 228.22 1540 280C1540 350 1540 350 1540 420C1540 487.94 1542.83 489.42 1540 555.88C1539.85 559.42 1537.63 559.89 1534.04 560C1467.63 561.95 1467.02 560 1400 560C1330 560 1330 560 1260 560C1190 560 1190 560 1120 560C1075.13 560 1046.9 587.33 1030.26 560C1004.29 517.33 1052.63 475.52 1034.78 420C1027.5 397.34 1005.41 403.64 980 403.64C969.5 403.64 971.57 411.91 962.97 420C901.57 477.69 906.16 484.91 840 535.19C814.05 554.91 810.69 554.34 778.75 560C740.69 566.74 739.38 560 700 560C658 560 616 576.24 616 560C616 538.06 665.68 527.22 700 483.64C720.81 457.22 726.25 451.89 726.25 420C726.25 387.26 726.17 354.68 700 354.38C643.05 353.72 630.4 416.98 560 418.08C490.4 419.17 488.08 358.22 420 358.75C365.58 359.18 320.95 376.55 315 420C307.16 477.18 402.7 518.89 392.42 560C385.2 588.89 336.21 560 280 560C210 560 210 560 140 560C70 560 35 595 0 560C-35 525 0 490 0 420C0 350 0 350 0 280C0 233.75 -26.32 215.2 0 187.5C40.18 145.2 133 161.35 133 140" stroke="rgba(14, 175, 154, 0.91)" stroke-width="2"></path><path d="M420 88C400.67 88 391.11 114.42 391.11 140C391.11 163.17 401.21 185.5 420 185.5C447.03 185.5 482.76 163.76 482.76 140C482.76 115.01 446.49 88 420 88" stroke="rgba(12, 30, 223, 1)" stroke-width="2"></path><path d="M980 127.27C973.22 130.69 971.38 134.16 971.38 140C971.38 144.41 974.6 145.72 980 147.78C1048.91 174.1 1057.26 199.34 1120 196.76C1151.68 195.45 1168.84 170.01 1168.84 140C1168.84 104.13 1154.82 67.35 1120 65C1060.4 60.98 1047.53 93.19 980 127.27" stroke="rgba(12, 30, 223, 1)" stroke-width="2"></path><path d="M140 151.67C122.24 151.67 120.85 215.21 107.92 280C94.08 349.37 75.11 362.24 86.47 420C91.15 443.76 112.32 443.04 140 443.04C184.59 443.04 223.37 451.49 231 420C243.12 369.97 203.44 350.61 179.49 280C157.94 216.45 158.03 151.67 140 151.67" stroke="rgba(14, 175, 154, 0.91)" stroke-width="2"></path><path d="M1400 205.88C1389.82 205.88 1379.34 244.04 1379.34 280C1379.34 300.79 1389.8 319.38 1400 319.38C1410.13 319.38 1420 300.73 1420 280C1420 243.98 1410.15 205.88 1400 205.88" stroke="rgba(12, 30, 223, 1)" stroke-width="2"></path><path d="M108.89 0C108.89 14.37 37.62 54.44 0 54.44C-16.82 54.44 -18.15 9.07 0 0C36.3 -18.15 108.89 -12.85 108.89 0" stroke="rgba(12, 30, 223, 1)" stroke-width="2"></path><path d="M208.57 140C210.58 103.29 246.05 83.55 280 83.55C309.54 83.55 312.14 108.31 335.56 140C382.14 203.03 367.37 267.72 420 273C479.59 278.97 493.09 160.7 560 162.5C622.91 164.2 679.64 225.16 679.64 280C679.64 328.98 622.09 368.75 560 370.14C492.27 371.66 495.23 304.67 420 285.83C355.23 269.6 344.91 302.51 280 300C269.52 299.59 273.86 290.37 269.23 280C238.14 210.37 205.2 201.52 208.57 140" stroke="rgba(14, 175, 154, 0.91)" stroke-width="2"></path><path d="M560 89.6C503.64 89.6 442.11 24.94 442.11 0C442.11 -19.86 501.06 0 560 0C606.66 0 653.33 -18.77 653.33 0C653.33 26.03 609.25 89.6 560 89.6" stroke="rgba(14, 175, 154, 0.91)" stroke-width="2"></path><path d="M735 140C722.88 73.36 718.75 42.88 750.91 0C771.25 -27.12 795.45 0 840 0C910 0 910 0 980 0C1018.89 0 1057.78 -10.98 1057.78 0C1057.78 12.88 1011.57 16.21 980 47.73C941.45 86.21 917.54 97.65 917.54 140C917.54 171.98 946.03 171.79 980 196.39C1042.69 241.79 1110.87 239.18 1110.87 280C1110.87 320.07 1041.57 314.02 980 358.18C943.97 384.02 948.05 389.31 915.68 420C878.05 455.67 877.15 490.89 840 490.89C804.31 490.89 777.82 463.2 770 420C758.73 357.75 810.23 347.29 801.82 280C792.73 207.29 748.34 213.36 735 140" stroke="rgba(12, 30, 223, 1)" stroke-width="2"></path><path d="M1250.23 140C1255.83 72.79 1154.3 43.45 1157.33 0C1159.18 -26.55 1208.66 0 1260 0C1330 0 1330 0 1400 0C1470 0 1493.51 -23.51 1540 0C1563.51 11.89 1563.37 62.14 1540 70.79C1493.37 88.06 1463.22 34.96 1400 51.85C1333.72 69.56 1300.65 82.53 1281 140C1261.64 196.61 1295.25 212.45 1321.97 280C1350.63 352.45 1356.19 350.38 1391.76 420C1395.21 426.75 1396.2 432.73 1400 432.73C1403.58 432.73 1403.34 426.41 1406.51 420C1441.12 350.04 1432.37 343.29 1475.56 280C1499.11 245.48 1520.51 224.38 1540 224.38C1552.73 224.38 1540 252.19 1540 280C1540 350 1540 350 1540 420C1540 462.21 1558.63 471.98 1540 504.41C1518.42 541.98 1503.07 542.73 1459.57 560C1433.07 570.52 1429.78 560 1400 560C1344 560 1341.77 567.27 1288 560C1271.77 557.81 1271.54 553.3 1260 541.08C1205.45 483.3 1189.2 489.18 1155.81 420C1126.2 358.64 1113.33 341.29 1134 280C1160.54 201.29 1244.17 212.79 1250.23 140" stroke="rgba(12, 30, 223, 1)" stroke-width="2"></path><path d="M0 250C10.6 250 35 260.15 35 280C35 327.65 8.98 385 0 385C-8.52 385 0 332.5 0 280C0 265 -6.9 250 0 250" stroke="rgba(12, 30, 223, 1)" stroke-width="2"></path><path d="M41.03 560C41.03 539.88 84.29 507.21 140 487.34C203.78 464.6 222.67 453.89 280 474.78C322.37 490.22 339.39 532.89 339.39 560C339.39 575.5 309.69 560 280 560C210 560 210 560 140 560C90.51 560 41.03 576.21 41.03 560" stroke="rgba(12, 30, 223, 1)" stroke-width="2"></path><path d="M11.67 0C11.67 1.54 4.03 5.83 0 5.83C-1.8 5.83 -1.94 0.97 0 0C3.89 -1.94 11.67 -1.38 11.67 0" stroke="rgba(12, 30, 223, 1)" stroke-width="2"></path><path d="M807.92 140C807.92 106.39 825.77 70 840 70C853.66 70 863.69 105.85 863.69 140C863.69 164.19 853.39 186.67 840 186.67C825.51 186.67 807.92 164.72 807.92 140" stroke="rgba(12, 30, 223, 1)" stroke-width="2"></path><path d="M1260 37.33C1244.46 37.33 1235.11 12.01 1235.11 0C1235.11 -6.66 1247.55 0 1260 0C1284.35 0 1308.7 -8.26 1308.7 0C1308.7 10.41 1281.25 37.33 1260 37.33" stroke="rgba(12, 30, 223, 1)" stroke-width="2"></path><path d="M1540 31.46C1510.72 31.46 1460 8.15 1460 0C1460 -7.58 1511.29 -11.29 1540 0C1551.29 4.44 1550.72 31.46 1540 31.46" stroke="rgba(12, 30, 223, 1)" stroke-width="2"></path><path d="M491.56 280C491.56 254.63 527.15 225 560 225C589.37 225 616 254.33 616 280C616 302.93 588.98 322.19 560 322.19C526.76 322.19 491.56 303.23 491.56 280" stroke="rgba(12, 30, 223, 1)" stroke-width="2"></path><path d="M917 280C917 262.94 949.04 245 980 245C1007.93 245 1034.78 262.91 1034.78 280C1034.78 296.78 1007.88 312.73 980 312.73C948.99 312.73 917 296.81 917 280" stroke="rgba(14, 175, 154, 0.91)" stroke-width="2"></path><path d="M1250.67 280C1251.76 272.72 1256.22 268.33 1260 268.33C1263.18 268.33 1263.42 273.85 1264.59 280C1277.83 349.68 1290.62 354.74 1288.82 420C1288.32 437.98 1273.63 446.49 1260 446.49C1247.83 446.49 1238.14 436.57 1237.21 420C1233.47 353.32 1240.37 348.55 1250.67 280" stroke="rgba(14, 175, 154, 0.91)" stroke-width="2"></path><path d="M1531.11 280C1533.04 274.52 1537.31 272.33 1540 272.33C1541.76 272.33 1540 276.16 1540 280C1540 350 1540 350 1540 420C1540 436.47 1549.07 452.94 1540 452.94C1523.03 452.94 1489.23 445.6 1487.91 420C1484.78 359.13 1507 348.36 1531.11 280" stroke="rgba(14, 175, 154, 0.91)" stroke-width="2"></path><path d="M813.75 420C813.75 393.91 826.44 363.24 840 363.24C853.76 363.24 868.38 394.16 868.38 420C868.38 435.83 853.93 446.58 840 446.58C826.62 446.58 813.75 435.58 813.75 420" stroke="rgba(12, 30, 223, 1)" stroke-width="2"></path><path d="M101.38 560C101.38 552.15 117.39 532.81 140 531.65C206.7 528.24 212.16 537.73 280 550.87C285.34 551.9 286.36 557.1 286.36 560C286.36 561.66 283.18 560 280 560C210 560 210 560 140 560C120.69 560 101.38 566.33 101.38 560" stroke="rgba(14, 175, 154, 0.91)" stroke-width="2"></path></g><defs><mask id="SvgjsMask1009"><rect width="1440" height="560" fill="#ffffff"></rect></mask></defs></svg>