<svg xmlns="http://www.w3.org/2000/svg" version="1.1" xmlns:xlink="http://www.w3.org/1999/xlink" xmlns:svgjs="http://svgjs.dev/svgjs" width="1920" height="1080" preserveAspectRatio="none" viewBox="0 0 1920 1080"><g mask="url(&quot;#SvgjsMask1047&quot;)" fill="none"><rect width="1920" height="1080" x="0" y="0" fill="#0e2a47"></rect><path d="M2076.76 266.28C1843.63 290.76 1602.82 798.01 1302.7 795.48 1002.58 792.95 1097.57 101.77 915.67-38.89" stroke="rgba(51,121,194,0.58)" stroke-width="2"></path><path d="M2055.84 859.42C1882.32 828.22 1863.25 447.27 1525.14 395.02 1187.02 342.77 1159.1 17.04 994.43-4.44" stroke="rgba(51,121,194,0.58)" stroke-width="2"></path><path d="M2159.39 267.29C2004.58 266.47 1857.21 132.29 1555.02 132.29 1252.84 132.29 1256.56 267.87 950.65 267.29 644.74 266.71 517.59-48.09 346.28-58.22" stroke="rgba(51,121,194,0.58)" stroke-width="2"></path><path d="M1939.59 427.45C1779.34 426.69 1626.28 292.45 1312.96 292.45 999.65 292.45 1018.66 433.94 686.34 427.45 354.01 420.96 268.82-109.51 59.71-151.47" stroke="rgba(51,121,194,0.58)" stroke-width="2"></path><path d="M2196.58 400.42C1995.04 415.31 1866.94 816.78 1500.15 810.82 1133.36 804.86 1067.01 31.09 803.72-61.21" stroke="rgba(51,121,194,0.58)" stroke-width="2"></path></g><defs><mask id="SvgjsMask1047"><rect width="1920" height="1080" fill="#ffffff"></rect></mask></defs></svg>