<svg xmlns="http://www.w3.org/2000/svg" version="1.1" xmlns:xlink="http://www.w3.org/1999/xlink" xmlns:svgjs="http://svgjs.dev/svgjs" width="1920" height="1080" preserveAspectRatio="none" viewBox="0 0 1920 1080"><g mask="url(&quot;#SvgjsMask1036&quot;)" fill="none"><rect width="1920" height="1080" x="0" y="0" fill="#0e2a47"></rect><path d="M-241.61 843.88C0.69 842.29 334.89 613.82 700.7 617.08 1066.51 620.34 991.76 1156.57 1171.86 1222.5" stroke="rgba(51,121,194,0.58)" stroke-width="2"></path><path d="M-228.34 456.01C-7.58 460.67 139.4 736.56 601.52 758.41 1063.64 780.26 1187.93 1253.99 1431.38 1274.46" stroke="rgba(51,121,194,0.58)" stroke-width="2"></path><path d="M-261.16 299.78C-122.04 304.84-95.32 454.31 247.42 526.58 590.16 598.85 551.41 1172.61 756 1263.36" stroke="rgba(51,121,194,0.58)" stroke-width="2"></path><path d="M-102.17 603.02C52.06 603.84 198.81 738.02 499.79 738.02 800.77 738.02 781.92 596.49 1101.74 603.02 1421.56 609.55 1501.12 1128.98 1703.7 1171.42" stroke="rgba(51,121,194,0.58)" stroke-width="2"></path><path d="M-239.32 824.62C19.88 816.02 348.32 412.59 713.43 414.22 1078.55 415.85 995.71 1035.4 1189.81 1125.61" stroke="rgba(51,121,194,0.58)" stroke-width="2"></path></g><defs><mask id="SvgjsMask1036"><rect width="1920" height="1080" fill="#ffffff"></rect></mask></defs></svg>