<svg xmlns="http://www.w3.org/2000/svg" version="1.1" xmlns:xlink="http://www.w3.org/1999/xlink" xmlns:svgjs="http://svgjs.dev/svgjs" width="1920" height="1080" preserveAspectRatio="none" viewBox="0 0 1920 1080"><g mask="url(&quot;#SvgjsMask1162&quot;)" fill="none"><rect width="1920" height="1080" x="0" y="0" fill="#0e2a47"></rect><path d="M-315.66 672.06C-156.73 658.96-63.15 330.32 227.3 337.26 517.75 344.2 556.37 998.16 770.26 1085.97" stroke="rgba(51,121,194,0.58)" stroke-width="2"></path><path d="M-16.38 598.19C146.07 598.93 301.44 733.19 619.27 733.19 937.09 733.19 910 587.28 1254.91 598.19 1599.83 609.1 1666.64 1212.62 1890.56 1270.97" stroke="rgba(51,121,194,0.58)" stroke-width="2"></path><path d="M-55.28 198.28C150.64 212.47 296.57 529.15 661.13 608.68 1025.7 688.21 863.74 1143.25 1019.34 1234.11" stroke="rgba(51,121,194,0.58)" stroke-width="2"></path><path d="M-292.71 909.78C-148.77 910.73-12.85 1044.78 267.01 1044.78 546.88 1044.78 545.96 909.71 826.74 909.78 1107.52 909.85 1235.64 1131.29 1386.46 1135.49" stroke="rgba(51,121,194,0.58)" stroke-width="2"></path><path d="M-188.17 514.4C42.9 539.38 256.63 1028.28 576.18 1043.6 895.74 1058.92 862.31 1082.75 958.36 1082.8" stroke="rgba(51,121,194,0.58)" stroke-width="2"></path></g><defs><mask id="SvgjsMask1162"><rect width="1920" height="1080" fill="#ffffff"></rect></mask></defs></svg>