<svg xmlns="http://www.w3.org/2000/svg" version="1.1" xmlns:xlink="http://www.w3.org/1999/xlink" xmlns:svgjs="http://svgjs.dev/svgjs" width="1440" height="560" preserveAspectRatio="none" viewBox="0 0 1440 560"><g mask="url(&quot;#SvgjsMask1077&quot;)" fill="none"><rect width="1440" height="560" x="0" y="0" fill="rgba(220, 237, 255, 1)"></rect><path d="M716.264,445.597C733.866,444.47,747.743,432.688,756.961,417.65C766.728,401.717,773.43,382.69,765.074,365.974C755.944,347.709,736.664,335.332,716.264,336.234C697.072,337.083,684.072,353.385,674.401,369.984C664.639,386.739,656.024,406.547,665.416,423.511C675.009,440.839,696.498,446.863,716.264,445.597" fill="rgba(0, 116, 255, 0.24)" class="triangle-float3"></path><path d="M938.6396915916347 59.69563304575844L914.0561493692741 175.352105982711 1029.7126223062266 199.93564820507157 1054.2961645285873 84.27917526811905z" fill="rgba(0, 116, 255, 0.24)" class="triangle-float3"></path><path d="M332.977,164.866C378.211,165.621,428.047,157.158,450.584,117.931C473.065,78.8,456.239,30.907,431.699,-6.967C409.591,-41.087,373.613,-62.274,332.977,-63.576C289.739,-64.961,245.575,-50.354,222.656,-13.664C198.469,25.054,197.978,75.28,221.976,114.116C244.898,151.21,289.378,164.139,332.977,164.866" fill="rgba(0, 116, 255, 0.24)" class="triangle-float3"></path><path d="M403.8548227725901 178.86460759807485L524.7699709118453 132.44963093643526 478.3549942502057 11.534482797180061 357.4398461109505 57.949459458819675z" fill="rgba(0, 116, 255, 0.24)" class="triangle-float2"></path><path d="M1111.4141316776645 617.2534416458255L1229.7639890529342 537.4254548791196 1149.9360022862281 419.07559750384985 1031.5861449109584 498.9035842705558z" fill="rgba(0, 116, 255, 0.24)" class="triangle-float2"></path><path d="M732.3776224261213 289.27130007560214L608.3850061158804 302.18398812943923 670.8906237226884 391.45126132478686z" fill="rgba(0, 116, 255, 0.24)" class="triangle-float3"></path><path d="M1152.6048805308765 176.82117985143066L1009.5940083612007 146.28080153621823 1046.968712173495 268.5279493657305z" fill="rgba(0, 116, 255, 0.24)" class="triangle-float2"></path><path d="M-41.852,526.2C-26.198,526.968,-13.829,513.704,-6.956,499.618C-0.908,487.223,-3.031,472.98,-10.107,461.142C-16.975,449.651,-28.465,441.223,-41.852,441.237C-55.216,441.251,-67.194,449.417,-73.479,461.211C-79.414,472.347,-76.805,485.115,-71.283,496.462C-64.742,509.903,-56.782,525.468,-41.852,526.2" fill="rgba(0, 116, 255, 0.24)" class="triangle-float1"></path><path d="M170.556,346.342C224.009,346.81,283.482,336.591,309.013,289.627C333.859,243.922,305.788,191.669,278.825,147.18C253.221,104.933,219.818,64.862,170.556,61.172C115.029,57.013,58.452,80.674,30.009,128.544C1.026,177.323,5.468,239.565,36.233,287.24C64.661,331.293,118.129,345.883,170.556,346.342" fill="rgba(0, 116, 255, 0.24)" class="triangle-float2"></path><path d="M1319.727,322.539C1342.99,324.727,1368.333,318.644,1380.667,298.799C1393.542,278.084,1389.493,251.492,1376.847,230.637C1364.688,210.585,1343.145,197.073,1319.727,198.3C1298.032,199.437,1281.577,216.57,1272.113,236.125C1263.872,253.153,1266.729,272.375,1275.858,288.943C1285.385,306.233,1300.073,320.691,1319.727,322.539" fill="rgba(0, 116, 255, 0.24)" class="triangle-float1"></path><path d="M937.4253795489036 50.8376889836131L1086.660368262987 30.009093020918797 1007.3897006675909-75.18663591794444z" fill="rgba(0, 116, 255, 0.24)" class="triangle-float1"></path><path d="M436.9165040834948 522.9658378239634L309.6815723375643 458.1364020347252 244.85213654832614 585.3713337806557 372.0870682942566 650.2007695698939z" fill="rgba(0, 116, 255, 0.24)" class="triangle-float3"></path><path d="M414.469,287.233C438.339,286.959,464.276,281.968,475.997,261.172C487.575,240.63,477.951,216.223,465.921,195.943C454.209,176.199,437.417,158.085,414.469,157.45C390.598,156.789,370.253,172.554,357.835,192.951C344.819,214.329,337.553,241.16,350.441,262.616C363.06,283.624,389.964,287.515,414.469,287.233" fill="rgba(0, 116, 255, 0.24)" class="triangle-float2"></path><path d="M128.77990898384525 252.59901264791623L223.44319360040691 216.26118224529682 121.60480568819693 92.43517052176404z" fill="rgba(0, 116, 255, 0.24)" class="triangle-float1"></path><path d="M1136.5771986411025 252.2396305702202L1031.694349980866 353.5238201911998 1132.9785396018456 458.4066688514363 1237.861388262082 357.12247923045675z" fill="rgba(0, 116, 255, 0.24)" class="triangle-float1"></path></g><defs><mask id="SvgjsMask1077"><rect width="1440" height="560" fill="#ffffff"></rect></mask><style>
                @keyframes float1 {
                    0%{transform: translate(0, 0)}
                    50%{transform: translate(-10px, 0)}
                    100%{transform: translate(0, 0)}
                }

                .triangle-float1 {
                    animation: float1 5s infinite;
                }

                @keyframes float2 {
                    0%{transform: translate(0, 0)}
                    50%{transform: translate(-5px, -5px)}
                    100%{transform: translate(0, 0)}
                }

                .triangle-float2 {
                    animation: float2 4s infinite;
                }

                @keyframes float3 {
                    0%{transform: translate(0, 0)}
                    50%{transform: translate(0, -10px)}
                    100%{transform: translate(0, 0)}
                }

                .triangle-float3 {
                    animation: float3 6s infinite;
                }
            </style></defs></svg>