<svg xmlns="http://www.w3.org/2000/svg" version="1.1" xmlns:xlink="http://www.w3.org/1999/xlink" xmlns:svgjs="http://svgjs.dev/svgjs" width="1920" height="1080" preserveAspectRatio="none" viewBox="0 0 1920 1080"><g mask="url(&quot;#SvgjsMask1015&quot;)" fill="none"><rect width="1920" height="1080" x="0" y="0" fill="rgba(201, 193, 186, 1)"></rect><path d="M-207.15 369.87C-17.47 365.89 173.3 66.5 506.11 110.67 838.92 154.84 677.49 968.66 862.74 1181.48" stroke="rgba(255, 255, 255, 0.5803921568627451)" stroke-width="2"></path><path d="M-305.45 977.13C-111.34 942.47-17.18 456.56 288.96 458.73 595.11 460.9 650.11 1176.65 883.38 1271.05" stroke="rgba(255, 255, 255, 0.5803921568627451)" stroke-width="2"></path><path d="M-60.74 844.26C137.42 838.4 296.83 539.9 672.32 541.86 1047.81 543.82 1167.46 1129.53 1405.38 1170.57" stroke="rgba(255, 255, 255, 0.5803921568627451)" stroke-width="2"></path><path d="M-324.04 578.27C-183.72 573.3-108.58 328.71 189.78 351.47 488.14 374.23 486.19 1076.26 703.6 1191.93" stroke="rgba(255, 255, 255, 0.5803921568627451)" stroke-width="2"></path><path d="M-215.71 343.99C10.84 358.66 212.53 743.07 577.1 786.79 941.67 830.51 833.93 1169.63 973.51 1205.93" stroke="rgba(255, 255, 255, 0.5803921568627451)" stroke-width="2"></path></g><defs><mask id="SvgjsMask1015"><rect width="1920" height="1080" fill="#ffffff"></rect></mask></defs></svg>